<svg width="1024" height="1024" viewBox="0 0 1024 1024" fill="none" xmlns="http://www.w3.org/2000/svg">
  <rect width="1024" height="1024" fill="#FFF6E8"/>
  <circle cx="246" cy="250" r="180" fill="#FF6B57"/>
  <circle cx="792" cy="252" r="178" fill="#A995FF"/>
  <circle cx="218" cy="804" r="184" fill="#56DFA1"/>
  <circle cx="802" cy="790" r="190" fill="#FFD84D"/>
  <circle cx="512" cy="512" r="360" fill="#1F1F1F"/>
  <circle cx="512" cy="512" r="286" fill="#FFF6E8"/>
  <path d="M512 218C349.6 218 218 349.6 218 512C218 674.4 349.6 806 512 806C627.4 806 727.3 739.5 775.4 642.7L645.7 578.2C621.3 627.3 570.6 661 512 661C429.7 661 363 594.3 363 512C363 429.7 429.7 363 512 363C570.4 363 621 396.6 645.5 445.4L775.1 380.6C726.8 284 627.1 218 512 218Z" fill="#1F1F1F"/>
  <circle cx="512" cy="512" r="112" fill="#FF6B57"/>
  <path d="M512 400C573.9 400 624 450.1 624 512C624 573.9 573.9 624 512 624C450.1 624 400 573.9 400 512C400 450.1 450.1 400 512 400Z" fill="#FFD84D"/>
  <circle cx="512" cy="512" r="56" fill="#56DFA1"/>
  <path d="M715 512C715 473.9 704.5 438.2 686.1 407.7L812.4 344.6C848 394.4 869 455.4 869 521C869 588.1 847.1 650.1 810.1 700.2L686.5 629.6C704.7 595 715 555.7 715 512Z" fill="#4AA3FF"/>
</svg>
